<?xml version="1.0" standalone="no"?>
<svg xmlns:xlink="http://www.w3.org/1999/xlink" id="wave" style="transform:rotate(0deg); transition: 0.3s" viewBox="0 0 1440 420" version="1.1" xmlns="http://www.w3.org/2000/svg"><defs><linearGradient id="sw-gradient-0" x1="0" x2="0" y1="1" y2="0"><stop stop-color="rgba(62, 243, 233.803, 1)" offset="0%"/><stop stop-color="rgba(11, 193.01, 255, 1)" offset="100%"/></linearGradient></defs><path style="transform:translate(0, 0px); opacity:1" fill="url(#sw-gradient-0)" d="M0,168L48,203C96,238,192,308,288,294C384,280,480,182,576,133C672,84,768,84,864,126C960,168,1056,252,1152,252C1248,252,1344,168,1440,154C1536,140,1632,196,1728,210C1824,224,1920,196,2016,203C2112,210,2208,252,2304,231C2400,210,2496,126,2592,105C2688,84,2784,126,2880,154C2976,182,3072,196,3168,189C3264,182,3360,154,3456,161C3552,168,3648,210,3744,224C3840,238,3936,224,4032,196C4128,168,4224,126,4320,105C4416,84,4512,84,4608,105C4704,126,4800,168,4896,168C4992,168,5088,126,5184,119C5280,112,5376,140,5472,175C5568,210,5664,252,5760,245C5856,238,5952,182,6048,140C6144,98,6240,70,6336,91C6432,112,6528,182,6624,196C6720,210,6816,168,6864,147L6912,126L6912,420L6864,420C6816,420,6720,420,6624,420C6528,420,6432,420,6336,420C6240,420,6144,420,6048,420C5952,420,5856,420,5760,420C5664,420,5568,420,5472,420C5376,420,5280,420,5184,420C5088,420,4992,420,4896,420C4800,420,4704,420,4608,420C4512,420,4416,420,4320,420C4224,420,4128,420,4032,420C3936,420,3840,420,3744,420C3648,420,3552,420,3456,420C3360,420,3264,420,3168,420C3072,420,2976,420,2880,420C2784,420,2688,420,2592,420C2496,420,2400,420,2304,420C2208,420,2112,420,2016,420C1920,420,1824,420,1728,420C1632,420,1536,420,1440,420C1344,420,1248,420,1152,420C1056,420,960,420,864,420C768,420,672,420,576,420C480,420,384,420,288,420C192,420,96,420,48,420L0,420Z"/><defs><linearGradient id="sw-gradient-1" x1="0" x2="0" y1="1" y2="0"><stop stop-color="rgba(62, 197.016, 243, 1)" offset="0%"/><stop stop-color="rgba(11, 201.275, 255, 1)" offset="100%"/></linearGradient></defs><path style="transform:translate(0, 50px); opacity:0.9" fill="url(#sw-gradient-1)" d="M0,168L48,168C96,168,192,168,288,175C384,182,480,196,576,231C672,266,768,322,864,287C960,252,1056,126,1152,119C1248,112,1344,224,1440,280C1536,336,1632,336,1728,280C1824,224,1920,112,2016,112C2112,112,2208,224,2304,238C2400,252,2496,168,2592,175C2688,182,2784,280,2880,301C2976,322,3072,266,3168,224C3264,182,3360,154,3456,168C3552,182,3648,238,3744,245C3840,252,3936,210,4032,182C4128,154,4224,140,4320,168C4416,196,4512,266,4608,294C4704,322,4800,308,4896,294C4992,280,5088,266,5184,217C5280,168,5376,84,5472,70C5568,56,5664,112,5760,175C5856,238,5952,308,6048,343C6144,378,6240,378,6336,357C6432,336,6528,294,6624,280C6720,266,6816,280,6864,287L6912,294L6912,420L6864,420C6816,420,6720,420,6624,420C6528,420,6432,420,6336,420C6240,420,6144,420,6048,420C5952,420,5856,420,5760,420C5664,420,5568,420,5472,420C5376,420,5280,420,5184,420C5088,420,4992,420,4896,420C4800,420,4704,420,4608,420C4512,420,4416,420,4320,420C4224,420,4128,420,4032,420C3936,420,3840,420,3744,420C3648,420,3552,420,3456,420C3360,420,3264,420,3168,420C3072,420,2976,420,2880,420C2784,420,2688,420,2592,420C2496,420,2400,420,2304,420C2208,420,2112,420,2016,420C1920,420,1824,420,1728,420C1632,420,1536,420,1440,420C1344,420,1248,420,1152,420C1056,420,960,420,864,420C768,420,672,420,576,420C480,420,384,420,288,420C192,420,96,420,48,420L0,420Z"/><defs><linearGradient id="sw-gradient-2" x1="0" x2="0" y1="1" y2="0"><stop stop-color="rgba(77.594, 85.995, 159.695, 1)" offset="0%"/><stop stop-color="rgba(11, 209.541, 255, 1)" offset="100%"/></linearGradient></defs><path style="transform:translate(0, 100px); opacity:0.8" fill="url(#sw-gradient-2)" d="M0,42L48,35C96,28,192,14,288,49C384,84,480,168,576,168C672,168,768,84,864,91C960,98,1056,196,1152,203C1248,210,1344,126,1440,77C1536,28,1632,14,1728,49C1824,84,1920,168,2016,196C2112,224,2208,196,2304,182C2400,168,2496,168,2592,196C2688,224,2784,280,2880,273C2976,266,3072,196,3168,168C3264,140,3360,154,3456,147C3552,140,3648,112,3744,140C3840,168,3936,252,4032,280C4128,308,4224,280,4320,280C4416,280,4512,308,4608,287C4704,266,4800,196,4896,189C4992,182,5088,238,5184,266C5280,294,5376,294,5472,294C5568,294,5664,294,5760,266C5856,238,5952,182,6048,133C6144,84,6240,42,6336,77C6432,112,6528,224,6624,252C6720,280,6816,224,6864,196L6912,168L6912,420L6864,420C6816,420,6720,420,6624,420C6528,420,6432,420,6336,420C6240,420,6144,420,6048,420C5952,420,5856,420,5760,420C5664,420,5568,420,5472,420C5376,420,5280,420,5184,420C5088,420,4992,420,4896,420C4800,420,4704,420,4608,420C4512,420,4416,420,4320,420C4224,420,4128,420,4032,420C3936,420,3840,420,3744,420C3648,420,3552,420,3456,420C3360,420,3264,420,3168,420C3072,420,2976,420,2880,420C2784,420,2688,420,2592,420C2496,420,2400,420,2304,420C2208,420,2112,420,2016,420C1920,420,1824,420,1728,420C1632,420,1536,420,1440,420C1344,420,1248,420,1152,420C1056,420,960,420,864,420C768,420,672,420,576,420C480,420,384,420,288,420C192,420,96,420,48,420L0,420Z"/></svg>