 <!DOCTYPE svg PUBLIC "-//W3C//DTD SVG 1.1//EN" "http://www.w3.org/Graphics/SVG/1.1/DTD/svg11.dtd">
<svg id="a3bf0a37-e648-4b08-8d08-ea335e5502a1" data-name="Layer 1" xmlns="http://www.w3.org/2000/svg" width="865.76" height="682.89" viewBox="0 0 865.76 682.89">
<defs>
<style xmlns="http://www.w3.org/1999/xhtml">*, ::after, ::before { box-sizing: border-box; }
img, svg { vertical-align: middle; }
</style>
<style xmlns="http://www.w3.org/1999/xhtml">*, body, html { -webkit-font-smoothing: antialiased; }
img, svg { max-width: 100%; }
</style>
</defs>
<rect x="94.07" y="65.28" width="296.31" height="469.24" rx="12.94" fill="#bcbec0"/>
<rect x="108.26" y="79.86" width="267.09" height="439.23" fill="#fff"/>
<rect x="364.16" y="503.65" width="102.28" height="26.25" rx="9.71" fill="#d1d3d4"/>
<path d="M449.27,637.58H419V523h-5.79V637.58h-30.3a2.13,2.13,0,0,0,0,4.25h66.39a2.13,2.13,0,0,0,0-4.25Z" fill="#d1d3d4"/>
<circle cx="447.29" cy="648.05" r="4.78" fill="#d1d3d4"/>
<circle cx="386.88" cy="648.05" r="4.78" fill="#d1d3d4"/>
<path d="M469.87,631.64l3.6-8.09L488.06,628l17.17,16a3.94,3.94,0,0,1,.87,4.54h0a3.92,3.92,0,0,1-5.1,1.92l-28.59-12.33A4.91,4.91,0,0,1,469.87,631.64Z" fill="#0071f2" data-primary="true"/>
<path d="M516.16,646.4V634.91l12.27-2.52,25.16,8.54a2.71,2.71,0,0,1,1.66,3.52h0a2.7,2.7,0,0,1-2.19,1.71l-32.54,4.09A3.88,3.88,0,0,1,516.16,646.4Z" fill="#0071f2" data-primary="true"/>
<path d="M493.07,539.16l-15.86,74.1,15.86,7s32.81-81.05,30.11-118.1c0,0,2.43-12-22.91-19.69,0,0-56.21-17.61-76.67-15.94l53.61,50.29,16.64,10Z" fill="#2f2e41" data-secondary="true"/>
<path d="M493.07,539.16l-15.86,74.1,15.86,7s32.81-81.05,30.11-118.1c0,0,2.43-12-22.91-19.69,0,0-56.21-17.61-76.67-15.94l53.61,50.29,16.64,10Z" opacity="0.2"/>
<circle cx="182.75" cy="189.28" r="48.25" fill="#ccc"/>
<rect x="170.6" y="55.54" width="142.42" height="32.42" rx="6" fill="#bcbec0"/>
<circle cx="242.05" cy="55.39" r="25.33" fill="#bcbec0"/>
<circle cx="242.05" cy="55.39" r="8.92" fill="#fff"/>
<rect x="251.07" y="148.17" width="100.74" height="14.47" rx="5.36" fill="#ccc"/>
<rect x="251.07" y="182.04" width="100.74" height="7.24" rx="2.68" fill="#ccc"/>
<rect x="251.07" y="206.36" width="100.74" height="7.24" rx="2.68" fill="#ccc"/>
<rect x="251.07" y="230.67" width="100.74" height="7.24" rx="2.68" fill="#ccc"/>
<rect x="141.07" y="256.15" width="210.74" height="7.24" rx="2.68" fill="#ccc"/>
<rect x="141.07" y="281.62" width="210.74" height="7.24" rx="2.68" fill="#ccc"/>
<rect x="141.07" y="304.2" width="210.74" height="7.24" rx="2.68" fill="#ccc"/>
<rect x="141.07" y="329.67" width="210.74" height="7.24" rx="2.68" fill="#ccc"/>
<rect x="141.07" y="355.15" width="210.74" height="7.24" rx="2.68" fill="#ccc"/>
<rect x="141.07" y="380.62" width="210.74" height="7.24" rx="2.68" fill="#ccc"/>
<rect x="141.07" y="403.2" width="210.74" height="7.24" rx="2.68" fill="#ccc"/>
<rect x="141.07" y="428.68" width="210.74" height="7.24" rx="2.68" fill="#ccc"/>
<path d="M154.06,200.21c-1.44,1.77-1.93,4.18,3,6.15,0,0,8.55-.73,10.55,2,0,0,4.55,6.3,9.56-2h14.26s1.23,8.83,7.75,2.1a9.68,9.68,0,0,1,9.5-2.79l.15,0a3.85,3.85,0,0,0,4.39-1.38c.9-1.39.9-3.55-2.69-6.6,0,0-4.84-9.68-4.24-17.37a32,32,0,0,0,0-6.64c-.75-5.78-3.24-15.06-11.46-16.53a11,11,0,0,0-6.46,1,8.23,8.23,0,0,1-7,.1,12.67,12.67,0,0,0-6.94-1.28c-5.61.72-13.85,4.22-12.65,18.83,0,0-.29,5-1.07,10.24A29.32,29.32,0,0,1,154.06,200.21Z" fill="#2f2e41" data-secondary="true"/>
<polygon points="269.23 440.35 375.35 651.97 380.76 651.97 275.39 440.35 269.23 440.35" fill="#ccc"/>
<polygon points="272.69 651.97 375.35 440.35 383.07 440.35 278.28 651.97 272.69 651.97" fill="#ccc"/>
<polygon points="569.78 440.35 675.91 651.97 681.31 651.97 575.95 440.35 569.78 440.35" fill="#ccc"/>
<polygon points="573.24 651.97 675.91 440.35 683.63 440.35 578.84 651.97 573.24 651.97" fill="#ccc"/>
<path d="M361.46,456.56a149.61,149.61,0,0,0,10.42-56s-17.37-49.79-3.09-55.2l17.76-8.49s16.21,15,28.94,1.93c0,0,17,2.32,25.86,11.19l37.83,34.21s19.3-26.49,24.7-42.7l10,5.41s-19.69,69.95-35.13,59.87c0,0-13.12-4.68-34.35-20.89a37.71,37.71,0,0,1-6.27,20.8,34.62,34.62,0,0,0-5.07,11.49c-2.71,11.15-6.75,32.1-3.71,48.09C429.39,466.31,384.71,468.56,361.46,456.56Z" fill="#0071f2" data-primary="true"/>
<path d="M393.56,511.59c-12.94-2.1-48-11.86-32.1-55,0,0,20.36,9.92,62.14,9.92,0,0,66.77,20.57,78.74,29.84,0,0,16.59,7.33,15.05,25.47L530.13,621l-16.21,5.41s-22-75.65-27.79-100.74c0,0-42.55-2.77-81.47-11.9C401,512.88,397.28,512.19,393.56,511.59Z" fill="#2f2e41" data-secondary="true"/>
<polygon points="477.21 613.26 473.47 623.55 488.06 627.97 490.59 619.13 477.21 613.26" fill="#f9b499"/>
<polygon points="516.16 634.91 516.16 625.64 528.43 621.55 528.43 632.39 516.16 634.91" fill="#f9b499"/>
<path d="M692.79,606.09l-23.62,14.53-61.7-85.92a35.06,35.06,0,0,1-6.78-20.55c0-8.77,3.55-19.34,17.33-26.56l93.13-31h14L651.45,531.5Z" fill="#2f2e41" data-secondary="true"/>
<path d="M692.79,606.09l-23.62,14.53-61.7-85.92a35.06,35.06,0,0,1-6.78-20.55c0-8.77,3.55-19.34,17.33-26.56l93.13-31h14L651.45,531.5Z" opacity="0.21"/>
<polygon points="632.88 621.55 632.88 634.91 652.12 634.91 652.12 618.33 632.88 621.55" fill="#f9b499"/>
<path d="M652.12,652.83V634.91H632.88c-14.34-4.31-27.64-1.53-33.09,6.61a17.22,17.22,0,0,0-2.76,8.76Z" fill="#0071f2" data-primary="true"/>
<polygon points="675.34 616.82 677.48 620.62 690.16 611.34 687.93 609.08 675.34 616.82" fill="#f9b499"/>
<path d="M660.43,648.05s-12.68-26,17.05-27.43l12.68-9.28s8.31,6.5,10.93,12.21Z" fill="#0071f2" data-primary="true"/>
<path d="M799.92,652.83h6.37L785.84,523h7.75a8.64,8.64,0,0,0,8.64-8.64v-6.07a8.64,8.64,0,0,0-8.64-8.64H709.74a8.64,8.64,0,0,0-8.65,8.64v6.07a8.64,8.64,0,0,0,8.65,8.64h6L698.6,652h4.74l29.73-129h36.45Z" fill="#d1d3d4"/>
<path d="M417,323.29l-1.54,15.55s-10.85,13.29-28.94-1.93l6.59-29.09Z" fill="#f9b499"/>
<path d="M405.49,279.09a34.74,34.74,0,0,0,16.93,3.84,9,9,0,0,0,8.68-9.33c-.28-4.49-3.21-10-13.87-13.83,0,0-30-12.95-44.77,22.4a25.69,25.69,0,0,0,.3,20.91c2.71,5.69,8,11.38,18.41,13.44l1-4.51c-.49-1.82-.94-3.78-1.29-5.88a60.93,60.93,0,0,1-.53-16C394.49,292.45,399.55,291.89,405.49,279.09Z" fill="#2f2e41" data-secondary="true"/>
<path d="M398.13,410.44s-9.79-54-29.91-62.21a4.8,4.8,0,0,0-4.69.53c-4.09,3-10.7,12.62,2.94,41.38a205.13,205.13,0,0,1,10.3,25.93l4,12.61h73.33v-8.79Z" fill="#0071f2" data-primary="true"/>
<path d="M398.13,410.44s-9.79-54-29.91-62.21a4.8,4.8,0,0,0-4.69.53c-4.09,3-10.7,12.62,2.94,41.38a205.13,205.13,0,0,1,10.3,25.93l4,12.61h73.33v-8.79Z" opacity="0.21"/>
<path d="M459.13,419l-5,.92v8.79h31.65l-8.87-6A23.9,23.9,0,0,0,459.13,419Z" fill="#f9b499"/>
<path d="M524.34,323.4l-20.46,18.14,10,5.41S530.51,339.61,524.34,323.4Z" fill="#f9b499"/>
<path d="M596.6,428.68l4.07-6.24a12.37,12.37,0,0,1,11.62-5.54l16.14,1.67v10.11Z" fill="#f9b499"/>
<path d="M628.43,350.84a19,19,0,0,0-11.68-4.52,18.45,18.45,0,0,1-15.64-9.51c-1.71-3.26-2.4-7-.42-10.79l41.2,15A30.49,30.49,0,0,1,628.43,350.84Z" fill="#f9b499"/>
<polygon points="697.3 316.52 706.46 329.24 724.28 316.52 713.72 297.31 697.3 316.52" fill="#f9b499"/>
<path d="M644.75,207.71H574.14a7.53,7.53,0,0,0-7.54,7.53v42a7.54,7.54,0,0,0,7.54,7.54H613l9,12.69a4.14,4.14,0,0,0,6.9-.24l7.6-12.45h8.24a7.55,7.55,0,0,0,7.54-7.54v-42A7.54,7.54,0,0,0,644.75,207.71Z" fill="#d1d3d4"/>
<circle cx="591.86" cy="235.67" r="4.99" fill="#fff"/>
<circle cx="609.44" cy="235.67" r="4.99" fill="#fff"/>
<circle cx="628.43" cy="236.22" r="4.99" fill="#fff"/>
<rect x="59.71" y="104.95" width="57.82" height="60.71" rx="6.78" fill="#d1d3d4"/>
<rect x="59.71" y="201.24" width="57.82" height="60.71" rx="6.78" fill="#d1d3d4"/>
<rect x="59.86" y="297.97" width="57.82" height="60.71" rx="6.78" fill="#d1d3d4"/>
<rect x="59.48" y="395.57" width="57.82" height="60.71" rx="6.78" fill="#d1d3d4"/>
<rect x="71.6" y="125.4" width="35.12" height="24.32" rx="1.71" fill="#fff"/>
<path d="M96.59,128.78H81.73V126a7.43,7.43,0,0,1,14.86,0Zm-13.51-1.35H95.24V126a6.08,6.08,0,1,0-12.16,0Z" fill="#fff"/>
<rect x="79.41" y="132.73" width="19.68" height="1.35" fill="#d1d3d4"/>
<rect x="79.31" y="136.88" width="19.68" height="1.35" fill="#d1d3d4"/>
<rect x="79.41" y="141.03" width="19.68" height="1.35" fill="#d1d3d4"/>
<polygon points="108.59 225.73 99.71 229.47 88.95 234.02 77.99 229.32 69.6 225.73 89.47 218.49 108.59 225.73" fill="#fff"/>
<path d="M99.77,229.79v8.7a4.05,4.05,0,0,1-4,4H82.11a4.06,4.06,0,0,1-4.06-4v-8.85l11,4.7Z" fill="#fff" stroke="#6c63ff" stroke-miterlimit="10" stroke-width="0.25"/>
<path d="M99.19,327.05a9.66,9.66,0,0,1-6.18,9v3.81H86.07v-3.81a9.65,9.65,0,1,1,13.12-9Z" fill="#fff"/>
<rect x="72.56" y="325.81" width="5.02" height="1.35" fill="#fff"/>
<rect x="78.64" y="314.77" width="1.35" height="4.52" transform="translate(-215 174.98) rotate(-50.19)" fill="#fff"/>
<rect x="88.87" y="309.6" width="1.35" height="4.82" fill="#fff"/>
<rect x="97.85" y="316.36" width="4.23" height="1.35" transform="translate(-189.76 154.05) rotate(-43.14)" fill="#fff"/>
<rect x="101.51" y="325.81" width="3.47" height="1.35" fill="#fff"/>
<path d="M85.68,342.22H93v1.16A3.67,3.67,0,0,1,89.35,347h0a3.66,3.66,0,0,1-3.67-3.66Z" fill="#fff"/>
<path d="M87.24,443.05l10.63-13.3a15,15,0,0,0,3.38-9.82A10.43,10.43,0,0,0,99.93,415s-5.43-9.73-16.93-4.9A12.77,12.77,0,0,0,76.08,418a14.25,14.25,0,0,0,2.2,12.35Z" fill="#fff"/>
<circle cx="88.57" cy="421.44" r="5.58" fill="#d1d3d4"/>
<ellipse cx="184.3" cy="187.84" rx="16.69" ry="20.48" fill="#f9b499"/>
<path d="M175.36,202.76H191a0,0,0,0,1,0,0v9.83a5.78,5.78,0,0,1-5.78,5.78h-4.05a5.78,5.78,0,0,1-5.78-5.78v-9.83A0,0,0,0,1,175.36,202.76Z" fill="#f9b499"/>
<path d="M177.29,169.26S174.56,178,167.61,182V165.66l28.21-3L203.71,178,201,179.79A27.27,27.27,0,0,1,177.29,169.26Z" fill="#2f2e41" data-secondary="true"/>
<rect x="251.07" y="428.68" width="452.27" height="15.89" rx="5.88" fill="#ccc"/>
<rect x="251.07" y="428.68" width="452.27" height="15.89" rx="5.88" opacity="0.2"/>
<path d="M354,306.34s-3-25.8,19.06-35.19c0,0,5.9-12.16,15.95-12.19,0,0-22.53-17.36-38.82-3.49a33.78,33.78,0,0,0-17,22.75s-4.5,23.45-18.37,26.12c0,0-49.22,22.88-50.26,48.53,0,0-2.78,32.62,26.69,37.8,0,0,19.06,4.16,26-16.64,0,0,3.81-21.85,16.63-21.85C333.88,352.18,372.71,346.48,354,306.34Z" fill="#2f2e41" data-secondary="true"/>
<path d="M708.71,343.52s-5.29-7.09-7.05-11.24a3.88,3.88,0,0,1,.7-4.09c3.58-4,14.18-14.46,25.09-12.13a3.48,3.48,0,0,1,2.22,1.87l3.55,8.86Z" fill="#2f2e41" data-secondary="true"/>
<path d="M625.64,619.4,628,517a27.23,27.23,0,0,1,16.1-24.21l81-36.25s44.17,12.7,62.09,0c0,0,9.14,51.67-83.89,58.14,0,0-36.79,3.5-39.85,20.55l-8.79,84.49a4.57,4.57,0,0,1-4.24,4.1,166.13,166.13,0,0,1-20.62.24A4.58,4.58,0,0,1,625.64,619.4Z" fill="#2f2e41" data-secondary="true"/>
<path d="M625.64,352.05s11.44-4.34,16.25-11.08l35.18,43.27s20.23-36.05,34.2-43.27L733,326s38.06-5.37,58.29,130.54c0,0-14.21,17.79-80.1,0l-2.7-65.49s-13.08,42-48.25,10.62C660.2,401.69,645.53,388.18,625.64,352.05Z" fill="#0071f2" data-primary="true"/>
<path d="M628.43,414.68v14h57.79s19.75-1.47,26-14l33.65-55.52c4.94-8.14,1.09-19.07-8.06-21.69-.34-.1-.68-.18-1-.26A12.86,12.86,0,0,0,723,344.07l-32.85,62.75Z" fill="#0071f2" data-primary="true"/>
<path d="M628.43,414.68v14h57.79s19.75-1.47,26-14l33.65-55.52c4.94-8.14,1.09-19.07-8.06-21.69-.34-.1-.68-.18-1-.26A12.86,12.86,0,0,0,723,344.07l-32.85,62.75Z" opacity="0.2"/>
<path d="M377.27,276.3l-4.22-5.15S380.42,256.84,389,259l3.89,3.62Z" fill="#0071f2" data-primary="true"/>
<path d="M699,318.84l2.76,3.84a21.26,21.26,0,0,0,6.71-14.29Z" fill="#f4a48e"/>
<ellipse cx="695.23" cy="288.52" rx="17.2" ry="31.07" fill="#f9b499"/>
<path d="M703.34,270.62s-32.54,16.35-33-10.85c0,0,.46-18.68,38-8.18a16.47,16.47,0,0,0,4.74.57c5.76-.1,20.68,1.56,21.84,21.35,0,0,1.11,13.5-6.68,25.17a22.8,22.8,0,0,0-3.76,9.89,9.09,9.09,0,0,1-1.94,4.7h0l-6.85-12.45s5.4-4.77,2.72-13.43c0,0-1.08-6.87-6.23-4.44,0,0-6.41,10.91-7.11,1.36-.18-2.5-.49-5-.83-7.46Z" fill="#2f2e41" data-secondary="true"/>
<ellipse cx="713.72" cy="291.68" rx="6.31" ry="10.95" fill="#f9b499"/>
<path d="M416.17,332.06l.36-5.32-16-.72S403.24,331.86,416.17,332.06Z" fill="#f4a48e"/>
<ellipse cx="409.68" cy="299" rx="19.3" ry="30.67" fill="#f9b499"/>
<path d="M405.49,279.09a34.74,34.74,0,0,0,16.93,3.84,9,9,0,0,0,8.68-9.33c-.28-4.49-3.21-10-13.87-13.83,0,0-30-12.95-44.77,22.4a25.69,25.69,0,0,0,.3,20.91c2.71,5.69,8,11.38,18.41,13.44l1-4.51c-.49-1.82-.94-3.78-1.29-5.88a60.93,60.93,0,0,1-.53-16C394.49,292.45,399.55,291.89,405.49,279.09Z" fill="#2f2e41" data-secondary="true"/>
<circle cx="393.66" cy="296.41" r="7.12" fill="#f9b499"/>
</svg>